<?xml version="1.0" standalone="no"?>
<!DOCTYPE svg PUBLIC "-//W3C//DTD SVG 20010904//EN"
 "http://www.w3.org/TR/2001/REC-SVG-20010904/DTD/svg10.dtd">
<svg version="1.0" xmlns="http://www.w3.org/2000/svg"
 width="2000.000000pt" height="2000.000000pt" viewBox="0 0 2000.000000 2000.000000"
 preserveAspectRatio="xMidYMid meet">

<g transform="translate(0.000000,2000.000000) scale(0.100000,-0.100000)"
fill="#000000" stroke="none">
<path d="M9410 18863 c-564 -42 -1246 -200 -1880 -435 -402 -149 -783 -345
-1058 -544 -57 -41 -106 -74 -110 -74 -4 0 -27 24 -50 54 -24 30 -100 110
-170 178 -197 193 -384 325 -629 444 -237 115 -571 211 -760 217 l-78 2 -3
-28 c-3 -25 57 -151 161 -336 l31 -55 -55 32 c-299 178 -688 312 -1009 346
-30 4 -73 9 -95 11 -61 7 -371 7 -455 0 -303 -26 -624 -114 -898 -246 -114
-55 -122 -61 -122 -88 0 -38 12 -46 90 -60 242 -45 599 -151 855 -253 130 -53
451 -205 480 -228 6 -4 66 -41 135 -80 245 -143 475 -308 692 -499 155 -136
404 -391 530 -541 l96 -116 -44 -88 c-24 -48 -51 -113 -60 -144 -8 -32 -29
-102 -45 -157 -42 -143 -86 -347 -106 -486 l-17 -120 -85 83 c-47 46 -132 127
-187 182 -124 120 -131 120 -168 8 -176 -539 -214 -949 -117 -1262 11 -35 19
-66 17 -68 -13 -12 -164 83 -280 176 -49 40 -93 72 -98 72 -4 0 -16 -8 -26
-18 -16 -16 -20 -42 -26 -153 -19 -383 59 -829 214 -1214 39 -97 145 -312 188
-380 23 -37 28 -51 17 -53 -21 -5 -222 33 -397 74 -84 20 -163 38 -175 41 -15
4 -26 -2 -37 -19 -15 -24 -14 -32 37 -169 89 -238 183 -424 310 -613 l59 -89
-28 -21 c-60 -43 -182 -156 -272 -251 -288 -304 -500 -688 -606 -1097 -49
-185 -60 -256 -45 -274 24 -29 46 -13 126 94 96 128 244 305 249 299 2 -2 0
-37 -5 -78 -134 -1020 98 -2140 680 -3274 194 -378 451 -798 721 -1177 120
-170 139 -187 168 -152 11 12 10 43 -4 167 -27 239 -27 540 -1 737 21 160 42
280 49 287 1 2 16 -27 31 -64 53 -126 302 -677 381 -843 567 -1194 1129 -2115
1758 -2885 168 -206 249 -298 464 -528 147 -157 180 -188 200 -185 49 6 48 26
-7 178 -106 290 -166 561 -191 860 -17 202 -18 202 54 60 111 -221 227 -403
425 -669 84 -112 127 -161 140 -161 11 0 22 3 24 8 3 4 8 70 11 147 8 150 9
162 32 300 16 97 62 285 73 297 9 10 93 -133 166 -280 194 -392 324 -883 419
-1577 39 -279 44 -309 61 -321 32 -24 54 -5 74 65 55 185 81 291 132 536 7 36
14 52 17 40 14 -64 118 -363 163 -468 98 -226 184 -385 326 -599 84 -126 85
-126 68 -152 -16 -24 -16 -28 -1 -51 19 -29 38 -32 56 -10 12 14 15 14 30 0
22 -20 33 -19 56 6 18 20 18 22 1 50 l-17 30 94 142 c182 276 325 573 425 880
28 87 51 166 51 174 0 40 13 -5 40 -138 32 -152 102 -421 125 -476 11 -25 20
-33 39 -33 14 0 29 8 35 18 5 9 16 76 25 147 98 777 241 1332 448 1750 65 131
151 276 159 268 13 -13 59 -200 79 -320 10 -62 22 -179 25 -260 4 -82 8 -154
11 -161 16 -51 129 80 343 398 105 156 211 336 273 464 l39 81 -6 -110 c-19
-327 -90 -665 -203 -959 -49 -127 -49 -148 0 -154 21 -3 50 23 174 155 975
1037 1709 2213 2525 4046 115 259 138 304 143 280 39 -189 57 -359 61 -583 3
-184 -6 -327 -31 -522 -7 -52 5 -78 37 -78 20 0 131 149 306 410 714 1070
1111 2057 1238 3075 43 351 39 914 -11 1190 -5 30 -5 30 37 -15 50 -53 174
-208 243 -303 50 -68 73 -80 96 -52 11 13 9 36 -9 127 -95 474 -325 913 -659
1259 -88 91 -245 235 -280 255 -1 0 30 50 70 110 93 138 200 349 271 529 83
211 83 213 60 237 -20 19 -21 19 -164 -16 -124 -31 -410 -86 -445 -86 -7 0 17
52 53 116 202 357 331 792 362 1210 13 178 5 441 -14 470 -8 13 -22 24 -29 24
-7 0 -45 -26 -82 -58 -105 -87 -287 -202 -300 -189 -2 2 3 23 11 47 45 126 70
327 61 480 -13 210 -54 410 -144 714 -38 129 -51 161 -69 169 -20 9 -40 -8
-210 -173 -179 -175 -188 -182 -191 -154 -8 87 -56 336 -86 449 -76 287 -88
324 -135 419 l-48 99 100 121 c120 145 453 480 592 595 599 497 1252 817 2001
981 97 21 180 44 184 50 4 6 5 23 2 37 -4 22 -23 35 -118 80 -366 173 -723
254 -1124 254 -487 0 -903 -112 -1327 -356 l-61 -35 55 102 c120 223 141 271
132 297 -9 23 -12 24 -85 17 -323 -27 -718 -170 -1028 -374 -184 -121 -407
-320 -539 -482 -27 -34 -40 -43 -50 -35 -264 189 -393 267 -652 395 -620 306
-1547 573 -2205 635 -36 4 -76 9 -90 12 -27 6 -1205 12 -1280 6z m860 -117
c14 -2 72 -7 130 -10 864 -52 1509 -190 2215 -474 243 -98 388 -166 640 -302
99 -54 222 -118 273 -144 65 -33 90 -50 85 -59 -4 -7 -31 -47 -59 -88 -76
-110 -161 -268 -216 -399 -50 -121 -56 -119 -36 12 9 63 9 80 -2 93 -24 29
-53 11 -133 -80 -316 -358 -549 -801 -669 -1272 l-22 -88 -7 45 c-7 44 5 201
16 220 11 17 -15 50 -39 50 -42 0 -271 -277 -444 -536 -196 -294 -373 -661
-468 -968 l-19 -59 -6 34 c-4 18 -7 75 -7 126 0 51 -3 97 -7 103 -3 5 -17 10
-30 10 -44 0 -268 -255 -395 -451 -91 -141 -205 -375 -242 -499 -3 -8 -8 3
-12 25 -12 68 -16 75 -41 75 -18 0 -39 -18 -78 -67 -180 -224 -320 -521 -376
-797 -11 -54 -22 -100 -24 -102 -3 -3 -38 8 -78 24 -41 16 -106 38 -145 48
-69 17 -73 17 -140 -1 -38 -10 -102 -31 -143 -47 -40 -16 -75 -27 -77 -25 -2
2 -11 41 -20 88 -51 272 -209 608 -386 820 -65 78 -102 78 -109 -1 -5 -59 -11
-56 -40 25 -99 270 -281 559 -495 784 -81 85 -101 102 -123 99 -26 -3 -26 -3
-32 -123 -4 -66 -7 -127 -8 -135 -1 -8 -26 53 -55 135 -172 491 -425 921 -773
1318 -64 72 -91 97 -109 97 -31 0 -45 -33 -32 -75 11 -40 17 -184 9 -215 -6
-20 -10 -11 -25 50 -63 261 -192 580 -330 814 -145 243 -399 566 -446 566 -36
0 -44 -25 -31 -100 22 -137 15 -144 -33 -29 -55 136 -119 255 -204 383 -37 55
-71 107 -75 113 -5 9 31 32 120 77 70 36 162 84 203 107 593 326 1274 569
1919 684 188 33 437 66 606 81 44 3 87 8 95 9 8 2 65 6 125 10 61 4 117 9 126
10 8 2 76 6 150 10 74 4 136 9 139 12 5 5 353 -5 390 -11z m-5157 -197 c533
-150 1020 -519 1318 -999 111 -180 191 -361 253 -575 l32 -110 34 0 c32 0 35
3 43 40 5 22 10 99 10 172 2 109 4 129 16 120 26 -22 197 -257 260 -358 113
-182 213 -394 288 -614 35 -104 96 -336 108 -415 4 -25 11 -53 17 -62 10 -21
51 -24 66 -5 22 27 62 169 69 248 l8 83 75 -94 c173 -217 302 -414 421 -645
124 -239 226 -495 289 -720 12 -44 27 -86 32 -92 17 -21 56 -15 73 11 22 33
53 193 54 279 1 28 2 27 54 -29 165 -181 307 -398 403 -617 47 -107 114 -307
135 -400 14 -67 36 -86 67 -59 18 14 22 34 27 132 4 63 8 116 10 118 1 2 23
-26 48 -62 136 -194 223 -391 282 -636 36 -152 35 -162 -22 -196 -27 -15 -62
-38 -79 -51 -39 -29 -45 -29 -41 0 14 78 -41 305 -104 431 -50 99 -60 110 -92
102 -22 -5 -27 -16 -43 -87 l-17 -82 -82 169 c-103 213 -206 392 -352 612
-105 159 -117 173 -141 170 -24 -3 -31 -13 -59 -84 -18 -44 -43 -122 -55 -172
-13 -51 -25 -92 -28 -92 -3 0 -22 51 -44 113 -196 570 -406 951 -672 1223
-110 111 -224 204 -252 204 -36 0 -40 -17 -68 -295 -4 -33 -10 -80 -13 -105
l-6 -45 -19 70 c-101 378 -311 824 -554 1180 -114 167 -139 195 -172 195 -16
0 -30 -7 -34 -16 -3 -8 -3 -72 0 -142 3 -70 3 -125 0 -122 -3 4 -26 71 -52
150 -107 335 -271 640 -491 918 -89 112 -314 341 -423 429 -162 131 -358 256
-391 251 -48 -7 -44 -24 64 -300 l104 -267 -71 63 c-192 171 -398 290 -637
369 -210 69 -406 98 -634 91 -151 -4 -154 -4 -323 -36 l-114 -22 -126 66
c-307 160 -736 316 -1049 383 -46 10 -83 21 -83 25 0 11 239 104 345 134 118
34 315 73 440 86 97 10 415 14 465 6 14 -2 53 -7 87 -10 355 -35 764 -183
1074 -389 68 -45 131 -85 139 -88 24 -10 50 9 50 37 0 24 -75 175 -192 387
-26 48 -48 89 -48 91 0 8 222 -36 323 -65z m10032 -79 c-42 -78 -96 -179 -120
-224 -50 -92 -54 -115 -25 -141 18 -17 23 -15 140 63 420 281 889 422 1401
423 357 0 676 -67 1004 -211 l50 -22 -105 -24 c-334 -76 -738 -224 -1045 -383
l-130 -67 -48 12 c-304 79 -674 64 -997 -38 -236 -76 -452 -197 -640 -361
l-86 -74 58 146 c129 324 151 390 138 406 -7 8 -23 15 -35 15 -26 0 -255 -150
-370 -243 -438 -354 -775 -851 -939 -1387 l-35 -115 -3 135 -3 135 -31 3 c-29
3 -37 -3 -76 -55 -267 -352 -499 -810 -630 -1241 l-43 -143 -22 198 c-13 109
-27 208 -33 221 -15 35 -47 27 -119 -32 -350 -283 -593 -680 -821 -1336 l-58
-165 -11 45 c-24 98 -94 300 -107 311 -32 26 -58 1 -161 -153 -138 -208 -217
-346 -338 -587 l-103 -205 -13 73 c-24 137 -65 137 -134 0 -65 -128 -100 -259
-107 -402 -2 -31 -5 -56 -8 -55 -3 2 -41 26 -84 53 l-77 50 5 52 c15 138 87
357 173 528 43 87 171 290 178 283 2 -2 7 -55 10 -118 6 -98 10 -118 27 -132
34 -30 51 -9 77 94 86 332 243 643 455 895 79 95 126 142 126 127 3 -87 36
-259 56 -291 16 -25 55 -31 72 -10 5 6 26 68 47 136 129 433 339 849 609 1207
58 77 118 154 134 173 l29 34 7 -77 c7 -77 36 -187 63 -239 11 -22 20 -28 40
-25 14 2 29 10 33 18 4 8 22 83 40 165 88 412 271 808 534 1159 116 155 118
156 111 69 -5 -67 8 -233 21 -268 5 -11 16 -15 38 -13 30 3 31 5 64 118 207
715 760 1296 1459 1534 128 43 414 110 431 100 2 -1 -31 -66 -73 -144z
m-10726 -635 c379 -56 731 -235 1006 -514 76 -78 102 -87 130 -45 16 26 15 32
-75 296 -50 149 -89 272 -88 274 2 2 42 -24 89 -57 437 -312 780 -747 978
-1244 81 -201 171 -544 171 -648 0 -60 49 -99 79 -63 16 18 28 161 30 351 1
82 3 151 5 153 2 1 29 -35 59 -81 207 -310 368 -639 482 -982 38 -115 96 -329
115 -428 14 -68 36 -87 70 -59 21 17 25 41 55 305 17 158 35 290 39 294 3 4
66 -54 139 -128 294 -299 477 -639 692 -1284 37 -110 72 -206 78 -213 5 -7 22
-12 36 -10 21 2 27 10 33 38 4 19 17 80 28 135 23 114 67 265 78 265 9 0 173
-255 247 -384 73 -129 201 -385 251 -505 40 -95 61 -118 95 -100 10 5 23 39
34 94 10 47 22 82 26 78 15 -17 57 -151 69 -222 7 -40 12 -110 12 -154 l0 -80
-58 -55 c-48 -46 -58 -52 -66 -38 -26 46 -134 168 -194 219 -152 129 -294 208
-759 423 -186 87 -420 210 -590 312 -704 421 -1337 1038 -1707 1662 -178 301
-203 340 -268 426 -38 49 -88 121 -111 159 -439 727 -1019 1326 -1649 1705
-77 46 -138 85 -136 87 2 2 43 10 92 17 122 19 353 19 483 1z m10112 -260
c-50 -147 -91 -270 -91 -274 0 -15 42 -51 60 -51 10 0 47 30 82 66 266 279
669 480 1048 525 124 14 407 6 490 -14 l55 -13 -50 -28 c-638 -364 -1252 -968
-1662 -1634 -48 -79 -107 -169 -131 -200 -80 -106 -179 -257 -257 -392 -229
-397 -431 -658 -764 -990 -481 -480 -1012 -837 -1722 -1159 -321 -145 -460
-222 -589 -326 -80 -65 -180 -166 -223 -227 l-32 -45 -58 51 -57 51 0 93 c0
107 21 218 57 310 30 73 32 71 53 -41 8 -43 18 -71 29 -76 31 -16 57 5 81 66
40 101 184 393 255 518 82 146 247 405 257 405 12 0 58 -159 86 -301 26 -127
29 -134 52 -137 14 -1 30 1 36 5 6 5 45 109 86 233 99 295 173 480 268 671
134 269 268 458 451 634 98 93 103 97 110 74 4 -13 20 -132 34 -264 37 -335
35 -329 84 -323 24 3 27 11 72 190 117 467 284 852 541 1246 45 67 82 121 84
119 2 -1 4 -68 5 -147 2 -172 17 -340 31 -357 28 -34 78 5 78 60 0 44 47 268
81 386 174 606 551 1139 1064 1506 49 35 91 62 93 60 2 -2 -37 -123 -87 -270z
m-9260 -1227 c149 -204 482 -706 526 -792 89 -177 216 -362 417 -609 67 -82
132 -161 145 -177 l23 -30 -65 -70 c-355 -383 -456 -932 -253 -1372 73 -158
239 -349 393 -451 180 -119 358 -176 578 -184 339 -13 649 107 915 354 100 92
113 101 204 137 69 28 321 89 366 89 30 0 285 -121 385 -183 39 -23 97 -63
130 -89 71 -54 195 -178 195 -195 0 -6 -22 -41 -48 -76 -27 -36 -61 -87 -77
-113 -20 -34 -31 -45 -38 -38 -20 20 -38 11 -54 -26 -8 -21 -57 -123 -108
-228 -135 -275 -270 -499 -439 -725 l-71 -95 -3 139 c-4 185 -9 192 -114 128
-268 -164 -710 -379 -1065 -518 -151 -59 -542 -194 -564 -194 -5 0 27 46 71
103 78 100 96 141 66 153 -8 3 -79 -10 -158 -30 -294 -73 -557 -102 -838 -92
-96 3 -188 8 -205 10 -16 3 -79 12 -140 21 -60 9 -161 27 -222 41 -118 26
-332 90 -346 104 -5 4 13 13 40 19 65 16 219 92 266 131 38 32 47 60 25 78 -7
6 -56 18 -108 27 -270 46 -513 173 -728 380 -178 170 -305 346 -433 597 -64
126 -165 366 -157 373 2 2 50 -8 108 -21 143 -33 443 -84 490 -84 34 0 40 3
46 27 4 16 2 34 -7 47 -239 373 -385 769 -445 1206 -14 107 -30 500 -20 500 3
0 38 -25 78 -55 90 -69 346 -199 370 -190 32 12 30 43 -7 136 -96 238 -109
517 -41 851 26 125 101 404 116 428 7 12 51 -26 199 -174 183 -182 191 -189
215 -178 15 6 26 18 26 26 0 85 55 395 102 579 16 65 27 124 24 132 -3 8 1 34
8 57 14 48 106 268 111 268 2 0 54 -69 116 -152z m9679 -67 c17 -46 28 -91 25
-101 -3 -10 8 -71 24 -136 51 -201 72 -314 96 -519 9 -71 14 -83 36 -90 16 -5
58 31 211 180 105 102 194 182 198 178 8 -10 70 -225 99 -343 53 -221 74 -487
52 -653 -14 -101 -51 -237 -88 -319 -26 -58 -25 -91 3 -102 34 -13 255 100
380 195 36 27 67 49 70 49 8 0 4 -236 -6 -366 -36 -450 -185 -904 -414 -1268
-59 -93 -66 -115 -40 -137 13 -11 37 -10 142 5 130 17 333 56 431 82 30 7 56
12 59 9 13 -12 -136 -349 -216 -487 -118 -205 -219 -334 -375 -485 -216 -208
-472 -339 -750 -383 -67 -11 -80 -17 -90 -37 -8 -19 -7 -27 11 -46 35 -37 166
-107 255 -138 96 -32 101 -26 -88 -84 -509 -154 -1055 -164 -1593 -29 -78 20
-149 34 -157 30 -31 -11 -14 -53 64 -151 43 -55 76 -101 72 -103 -13 -5 -401
128 -571 195 -324 128 -684 301 -974 467 -82 47 -154 86 -161 86 -28 0 -34
-30 -37 -165 l-3 -140 -86 117 c-187 252 -341 520 -510 886 -37 79 -53 94 -76
71 -8 -8 -16 -2 -28 22 -10 19 -44 71 -76 116 -33 45 -59 86 -59 91 0 21 195
195 282 253 113 74 390 212 426 212 41 0 289 -58 356 -83 88 -34 122 -56 216
-143 267 -247 578 -367 920 -354 173 7 294 37 445 112 136 67 216 127 331 248
143 151 232 322 276 537 26 124 20 371 -11 495 -59 237 -169 445 -322 609
l-71 76 24 28 c12 16 65 80 117 143 201 244 341 445 431 619 58 113 369 583
536 810 l119 162 32 -69 c18 -37 46 -106 63 -152z m-8629 -1714 c-10 -9 -11
-8 -5 6 3 10 9 15 12 12 3 -3 0 -11 -7 -18z m7379 -2 c14 -19 14 -19 -2 -6
-10 7 -18 18 -18 24 0 6 1 8 3 6 1 -2 9 -13 17 -24z m-7159 -62 c30 -9 61 -17
70 -18 23 0 267 -236 251 -242 -27 -10 -83 -66 -107 -107 -69 -119 -99 -394
-59 -551 47 -190 205 -359 383 -412 66 -19 188 -20 262 -3 162 38 357 175 469
329 25 34 49 61 55 61 6 0 33 -15 60 -32 57 -37 101 -112 111 -188 6 -45 4
-48 -53 -120 -162 -203 -391 -354 -630 -416 -119 -31 -319 -43 -433 -25 -243
38 -489 182 -653 381 -280 341 -309 759 -84 1194 55 105 70 120 151 148 65 22
138 23 207 1z m7176 -19 c57 -29 59 -30 118 -149 73 -144 111 -256 131 -390
64 -408 -139 -813 -518 -1038 -305 -181 -699 -183 -1038 -6 -147 76 -325 231
-411 356 -33 48 -35 69 -11 138 23 66 66 119 120 147 l43 23 22 -30 c162 -222
377 -362 578 -378 255 -20 504 168 563 424 38 164 16 410 -50 540 -21 43 -86
111 -115 121 -19 7 227 242 255 245 12 0 41 8 66 17 70 25 175 16 247 -20z
m-6538 -559 c31 -16 41 -33 41 -71 0 -57 -55 -114 -109 -114 -12 0 -35 13 -53
29 -27 24 -32 35 -32 76 -1 45 2 51 33 72 39 26 80 29 120 8z m5772 -8 c31
-21 34 -27 33 -72 0 -41 -5 -52 -32 -76 -49 -44 -103 -34 -143 27 -63 96 44
187 142 121z m-2843 -826 c246 -81 484 -254 640 -466 109 -149 196 -357 226
-543 44 -275 -24 -593 -203 -944 -81 -158 -151 -272 -376 -613 -198 -300 -300
-465 -354 -572 -17 -35 -33 -63 -35 -63 -2 0 -22 37 -46 82 -62 119 -178 306
-359 576 -353 529 -489 804 -552 1118 -26 128 -30 319 -10 434 67 382 328 733
677 912 96 49 238 102 291 107 6 0 52 -12 101 -28z m988 -938 c87 -183 249
-441 404 -648 145 -192 142 -189 173 -181 l27 6 0 165 c0 91 2 165 4 165 2 0
43 -23 92 -51 488 -282 979 -493 1517 -655 162 -48 188 -52 207 -29 18 22 6
43 -84 154 -42 51 -75 95 -73 97 1 2 27 -3 57 -11 85 -23 307 -63 392 -71 43
-4 88 -8 100 -9 13 -1 89 -3 169 -4 l146 -1 27 -40 c44 -66 166 -189 249 -251
43 -32 123 -81 177 -108 119 -59 116 -62 -73 -62 -147 0 -215 9 -354 48 -76
21 -96 23 -108 13 -25 -21 -17 -48 33 -110 106 -132 172 -288 193 -460 23
-187 -11 -450 -92 -724 l-21 -68 -38 113 c-46 138 -85 226 -152 343 -79 137
-248 356 -276 356 -28 0 -44 -33 -37 -78 13 -90 13 -289 -1 -402 -46 -366
-214 -741 -533 -1185 -58 -81 -230 -305 -252 -330 -6 -5 -7 11 -4 40 2 28 12
145 20 260 9 116 17 228 20 250 2 22 7 84 11 137 7 106 2 117 -49 105 -33 -9
-195 -259 -277 -429 -164 -341 -241 -668 -244 -1038 -1 -191 7 -190 -88 -10
-383 727 -379 720 -403 720 -12 0 -28 -6 -34 -14 -7 -8 -19 -76 -27 -152 -55
-506 -229 -1014 -496 -1452 -69 -114 -181 -276 -232 -337 l-26 -30 8 75 c18
192 3 725 -24 794 -8 22 -42 26 -63 8 -10 -10 -131 -181 -268 -382 -137 -201
-333 -486 -435 -635 -102 -148 -222 -325 -268 -392 l-83 -122 -37 52 c-36 51
-535 779 -855 1247 -147 215 -164 235 -192 238 -37 4 -37 4 -55 -133 -13 -110
-17 -517 -6 -660 l8 -90 -25 30 c-160 191 -373 561 -488 845 -139 345 -200
599 -252 1053 -6 50 -11 57 -44 57 -30 0 -1 51 -387 -682 -55 -103 -101 -188
-104 -188 -3 0 -4 55 -4 122 5 448 -127 916 -366 1298 -115 186 -151 223 -196
206 -14 -5 -15 -19 -10 -99 4 -50 9 -108 11 -127 2 -19 7 -73 10 -120 3 -47 7
-105 10 -130 2 -25 7 -81 10 -125 3 -44 8 -107 11 -140 4 -50 2 -57 -8 -45 -7
9 -56 72 -109 140 -399 517 -600 915 -665 1315 -16 102 -20 334 -8 452 6 56 4
62 -15 73 -28 15 -39 7 -110 -78 -142 -170 -267 -392 -339 -605 l-41 -119 -15
52 c-61 206 -96 399 -101 560 -7 265 55 467 199 641 48 58 56 88 31 109 -12
10 -33 7 -107 -14 -51 -14 -124 -30 -163 -36 -73 -12 -322 -14 -349 -4 -10 4
16 21 74 50 50 24 118 63 153 86 79 54 220 190 272 262 l40 56 150 1 c83 0
159 2 170 4 11 1 51 6 88 9 92 9 284 43 377 66 41 10 76 17 78 15 2 -2 -32
-48 -76 -102 -44 -54 -82 -105 -84 -113 -8 -24 11 -50 36 -50 61 0 516 150
796 262 298 120 702 318 918 450 34 21 65 38 67 38 3 0 5 -71 5 -158 0 -162 4
-182 41 -182 31 0 248 289 387 516 44 72 108 182 141 245 33 63 61 110 61 104
0 -5 -7 -48 -15 -95 -18 -106 -13 -303 10 -420 47 -240 151 -478 370 -845 22
-38 60 -101 82 -140 213 -367 388 -642 505 -796 38 -50 68 -99 70 -115 3 -27
6 -29 43 -29 37 0 40 2 45 30 3 17 32 66 66 110 134 176 246 352 482 755 348
593 413 732 474 1007 28 123 31 399 6 501 -8 34 -14 62 -12 62 1 0 15 -26 30
-57z m-6854 -168 c161 -168 314 -282 484 -360 83 -38 230 -90 289 -101 l39 -7
-22 -18 c-49 -39 -223 -83 -348 -88 -22 -1 -34 -8 -42 -25 -16 -36 0 -50 113
-94 278 -110 562 -176 888 -207 37 -4 67 -10 67 -15 0 -13 -139 -139 -222
-201 -98 -73 -252 -151 -366 -185 -104 -31 -120 -43 -104 -78 12 -28 40 -38
177 -63 140 -25 394 -19 497 13 14 4 9 -12 -22 -69 -89 -166 -121 -315 -115
-542 5 -209 37 -376 132 -685 30 -100 51 -140 72 -140 22 1 35 31 60 131 57
227 154 443 279 618 l67 94 6 -169 c18 -471 202 -908 622 -1473 161 -216 289
-371 307 -371 37 0 47 32 39 122 -12 137 -38 466 -44 568 l-6 95 39 -60 c165
-253 290 -602 338 -940 20 -146 23 -439 5 -575 -13 -92 -13 -94 8 -112 43 -34
14 -78 327 510 120 226 222 412 226 412 5 0 8 -12 8 -27 0 -16 9 -80 20 -143
104 -627 353 -1189 746 -1679 59 -73 112 -135 119 -138 8 -2 23 1 36 7 24 13
25 -4 -6 250 -16 131 -21 548 -7 629 l7 44 138 -204 c155 -228 311 -460 495
-732 68 -100 177 -261 242 -357 74 -109 115 -179 109 -184 -14 -15 -11 -43 6
-60 17 -17 90 -19 119 -4 15 8 17 17 12 46 -6 40 -37 -9 499 785 72 105 209
308 305 451 205 303 187 303 194 1 4 -198 -2 -311 -29 -507 -18 -128 -15 -153
18 -164 26 -8 61 29 196 206 298 392 511 832 630 1306 30 122 64 296 76 394 4
30 10 61 14 68 4 7 90 -143 211 -370 112 -211 223 -420 247 -465 24 -44 50
-84 58 -87 8 -3 24 3 36 13 22 17 22 20 10 107 -15 114 -16 422 -1 539 19 154
59 332 106 474 45 137 173 410 239 511 l36 55 -7 -125 c-3 -69 -7 -132 -9
-140 -2 -8 -11 -122 -21 -252 -18 -251 -17 -268 26 -268 20 0 172 186 343 419
401 549 587 1009 589 1463 1 70 5 125 9 122 5 -3 40 -53 79 -111 126 -189 208
-373 260 -585 16 -67 35 -125 42 -129 6 -4 21 -4 32 1 25 9 74 154 131 384 52
211 64 307 60 496 -4 218 -39 357 -126 500 -15 24 -27 46 -25 47 1 2 38 -4 82
-13 121 -25 333 -22 464 5 119 25 153 42 148 74 -4 25 -25 36 -138 72 -110 35
-243 104 -340 176 -83 61 -227 195 -219 203 3 3 55 10 116 16 294 27 656 118
897 225 50 22 56 28 56 54 0 17 -3 32 -7 34 -5 3 -42 8 -83 12 -100 8 -181 29
-260 66 l-65 31 100 28 c291 83 554 252 759 490 39 44 74 80 79 80 19 0 347
-341 420 -437 193 -254 328 -511 420 -800 61 -189 60 -190 -26 -87 -135 161
-230 259 -252 259 -17 0 -20 -6 -20 -45 1 -44 21 -247 31 -305 10 -56 12 -600
3 -710 -76 -971 -395 -1890 -1009 -2915 -87 -144 -329 -514 -401 -612 l-31
-43 7 49 c4 27 8 133 9 235 5 289 -15 488 -76 779 -16 77 -26 106 -41 113 -27
15 -46 4 -64 -38 -205 -494 -605 -1344 -823 -1748 -133 -248 -185 -341 -285
-515 -384 -666 -795 -1256 -1227 -1761 -141 -166 -339 -382 -344 -376 -2 1 8
39 22 82 63 199 114 451 133 660 16 165 22 376 13 410 -15 55 -82 42 -82 -17
0 -30 -27 -79 -218 -397 -119 -198 -245 -393 -320 -495 -59 -80 -57 -82 -66
79 -8 133 -49 345 -94 480 -49 146 -61 149 -135 33 -275 -428 -436 -898 -561
-1638 -19 -113 -38 -233 -42 -267 -7 -64 -18 -81 -27 -41 -3 13 -19 83 -36
157 -26 111 -57 274 -86 447 -6 35 -34 49 -60 30 -9 -6 -25 -56 -39 -116 -94
-415 -263 -808 -503 -1168 -42 -61 -77 -112 -78 -112 -6 0 -171 258 -219 343
-151 267 -285 610 -351 902 -33 144 -35 149 -68 153 -34 4 -42 -13 -56 -118
-24 -171 -109 -552 -121 -545 -4 3 -10 33 -14 67 -11 101 -54 358 -92 548
-111 559 -293 1040 -526 1383 -69 101 -87 80 -153 -178 -37 -143 -65 -337 -65
-448 l0 -72 -20 25 c-60 75 -255 374 -372 570 -198 330 -208 348 -208 379 0
36 -22 55 -55 47 l-25 -6 0 -168 c0 -178 17 -355 50 -542 21 -118 77 -341 105
-419 8 -24 14 -46 12 -48 -2 -2 -47 43 -99 99 -901 981 -1628 2158 -2395 3878
-80 179 -156 353 -170 387 -28 71 -44 87 -72 78 -23 -7 -30 -28 -60 -175 -59
-286 -81 -647 -57 -913 5 -54 4 -77 -3 -72 -19 11 -324 475 -437 665 -567 947
-906 1898 -979 2750 -4 41 -9 86 -11 100 -3 14 -6 140 -8 280 -5 284 5 475 35
690 13 94 11 120 -7 127 -20 7 -65 -36 -216 -211 -137 -158 -135 -159 -63 59
96 289 223 530 414 780 66 88 399 435 416 435 4 0 61 -56 127 -125z"/>
<path d="M9841 18349 c-109 -20 -200 -96 -265 -218 -39 -74 -86 -237 -86 -300
-1 -34 -3 -31 -44 50 -98 196 -220 304 -369 327 -174 27 -310 -59 -413 -263
-44 -88 -75 -178 -115 -335 l-12 -45 -13 59 c-40 169 -162 347 -295 432 -144
91 -354 88 -502 -6 -142 -90 -267 -270 -323 -464 -10 -36 -21 -66 -24 -66 -3
0 -14 14 -24 31 -11 18 -50 64 -87 104 -90 95 -169 136 -273 143 -79 5 -126
-2 -126 -18 0 -6 31 -10 70 -10 94 0 165 -28 235 -92 58 -52 127 -155 169
-250 38 -85 86 -90 101 -10 31 166 129 374 223 474 183 194 467 194 613 1 44
-58 101 -171 158 -315 52 -131 60 -143 92 -135 21 5 26 17 43 89 31 141 86
310 124 382 99 190 283 271 430 191 126 -68 239 -250 288 -460 15 -60 30 -120
34 -131 10 -25 37 -34 68 -23 20 8 21 14 20 116 -3 220 62 467 152 575 17 20
56 49 88 65 56 27 61 28 227 28 166 0 171 -1 227 -28 124 -61 189 -195 228
-467 11 -74 18 -169 17 -210 l-2 -75 34 -3 c18 -2 38 1 43 6 5 5 19 56 33 114
29 129 72 236 134 331 119 181 259 235 413 159 140 -69 217 -206 293 -522 27
-114 50 -155 79 -144 7 3 37 64 66 137 81 205 125 283 200 358 47 48 79 70
115 83 72 24 141 30 210 17 213 -39 363 -220 456 -551 16 -57 33 -108 38 -113
22 -22 48 1 86 79 59 119 101 179 163 234 71 63 140 90 233 90 52 0 70 3 66
13 -3 8 -31 12 -98 12 -82 -1 -101 -4 -151 -29 -69 -33 -156 -109 -215 -190
-26 -35 -45 -53 -48 -45 -2 8 -13 42 -25 76 -106 323 -318 513 -575 515 -239
2 -444 -181 -528 -472 l-24 -81 -28 108 c-68 263 -171 433 -307 505 -37 20
-58 23 -148 23 -100 0 -108 -2 -167 -33 -107 -59 -178 -137 -255 -286 -41 -79
-47 -87 -48 -59 0 51 -28 170 -57 241 -48 121 -121 210 -209 255 -45 23 -141
36 -199 27 -27 -4 -54 -6 -60 -4 -28 8 -115 10 -154 3z"/>
<path d="M8244 17236 c-84 -19 -158 -59 -222 -120 -71 -67 -110 -124 -148
-220 l-32 -79 -23 44 c-63 125 -181 253 -266 290 -67 30 -156 35 -226 15 -31
-9 -57 -20 -57 -24 0 -4 42 -8 93 -8 79 0 100 -4 149 -27 117 -57 220 -210
284 -422 32 -106 38 -115 74 -115 15 0 32 6 37 13 6 6 13 51 17 99 23 299 170
487 399 512 64 7 153 -10 203 -39 52 -31 116 -101 147 -162 31 -60 73 -191 88
-277 10 -53 16 -66 31 -66 11 0 18 7 18 20 0 37 92 251 140 323 96 147 209
205 345 177 123 -26 179 -107 239 -347 20 -81 41 -152 47 -160 14 -16 55 -17
66 0 4 6 8 47 9 90 3 97 24 161 78 235 51 69 102 111 185 152 44 22 61 36 61
51 0 33 -26 32 -92 -2 -84 -44 -177 -139 -218 -223 l-33 -67 -18 52 c-41 115
-130 223 -216 261 -147 65 -335 7 -443 -136 -49 -65 -112 -199 -136 -290 l-18
-69 -27 104 c-56 215 -137 333 -272 394 -68 32 -178 40 -263 21z"/>
<path d="M11574 17240 c-160 -32 -291 -194 -346 -430 l-21 -92 -24 83 c-45
155 -132 298 -221 364 -56 41 -155 75 -221 75 -146 0 -275 -102 -340 -270
l-28 -71 -33 68 c-42 85 -132 176 -218 222 -66 34 -92 35 -92 2 0 -15 21 -31
80 -62 95 -49 164 -119 211 -214 27 -56 32 -77 34 -154 2 -49 6 -94 10 -100 9
-16 50 -14 64 3 6 8 27 76 47 152 44 177 67 235 113 282 54 56 103 76 186 76
164 1 279 -113 386 -383 21 -53 39 -106 39 -118 0 -16 6 -23 19 -23 15 0 21
12 31 68 18 95 65 237 100 298 32 55 99 123 148 148 46 24 143 36 213 26 212
-30 354 -224 375 -510 7 -95 15 -110 54 -110 37 0 42 8 79 125 48 152 105 259
176 330 86 88 137 109 253 109 102 -1 116 11 41 34 -74 22 -174 11 -247 -28
-79 -42 -167 -135 -229 -241 l-47 -80 -21 60 c-93 257 -333 408 -571 361z"/>
<path d="M9595 16437 c-151 -51 -236 -171 -290 -412 -7 -28 -9 -25 -34 45 -57
159 -152 280 -266 336 -54 26 -70 29 -155 29 -88 0 -101 -3 -162 -33 -91 -45
-178 -140 -243 -266 -28 -53 -53 -95 -56 -93 -4 1 -35 45 -70 97 -165 248
-348 351 -489 277 -49 -26 -69 -55 -29 -43 13 5 52 10 85 13 48 4 71 1 108
-15 104 -47 236 -213 317 -401 67 -157 103 -161 158 -14 58 153 109 242 181
313 79 80 140 105 229 97 164 -14 249 -106 342 -365 27 -75 49 -138 49 -140 0
-2 10 -2 23 0 18 2 22 9 20 38 -2 45 40 185 83 276 95 202 305 249 443 99 59
-64 104 -158 107 -224 2 -59 12 -71 61 -71 44 0 65 24 57 65 -8 43 47 160 105
227 130 147 339 109 438 -79 45 -85 96 -251 88 -289 -4 -22 -1 -35 11 -45 23
-19 34 0 79 129 91 265 182 365 345 379 91 9 152 -17 230 -96 72 -72 124 -162
181 -315 49 -131 93 -140 138 -29 86 212 224 395 338 445 36 16 59 19 107 15
33 -3 72 -8 85 -13 40 -12 20 16 -29 42 -66 35 -139 33 -218 -7 -97 -48 -216
-174 -305 -322 l-35 -57 -42 82 c-113 222 -248 328 -417 328 -192 0 -356 -151
-433 -399 l-17 -53 -21 90 c-33 140 -97 253 -176 310 -156 112 -362 60 -472
-119 l-36 -58 -40 59 c-46 70 -106 125 -165 152 -55 24 -156 32 -208 15z"/>
<path d="M9946 15760 c-49 -45 -107 -156 -132 -250 -9 -36 -18 -71 -21 -79 -2
-8 -22 21 -43 65 -111 221 -280 301 -458 217 -87 -41 -163 -154 -192 -285
l-13 -56 -39 58 c-56 85 -150 167 -238 209 -73 35 -78 36 -190 36 -96 0 -125
-4 -171 -23 -68 -27 -142 -90 -169 -143 -33 -63 -23 -65 38 -7 169 161 380
161 541 0 50 -49 71 -83 134 -214 41 -85 82 -158 90 -161 8 -3 24 1 36 9 19
14 21 22 15 72 -11 105 36 288 96 370 61 84 205 120 296 74 86 -44 151 -143
210 -321 30 -92 33 -96 60 -96 28 0 29 2 26 40 -13 177 9 246 116 370 l67 77
57 -63 c105 -116 152 -243 128 -344 -15 -62 -4 -88 34 -83 17 2 27 22 52 98
57 175 124 279 206 321 87 45 234 12 293 -65 62 -81 111 -262 102 -372 -5 -63
8 -87 44 -82 26 3 28 7 109 179 27 59 67 129 89 157 124 156 330 200 491 103
14 -8 51 -39 83 -70 60 -58 70 -56 37 8 -27 53 -101 116 -169 143 -47 19 -75
23 -172 23 -113 0 -116 -1 -192 -38 -91 -45 -181 -125 -235 -208 l-39 -59 -13
60 c-31 145 -119 261 -223 296 -109 37 -218 16 -301 -56 -48 -43 -112 -137
-141 -209 -23 -55 -23 -56 -30 -26 -32 145 -85 262 -142 318 -55 53 -76 54
-127 7z"/>
<path d="M9709 15044 c-87 -26 -176 -125 -209 -233 l-17 -53 -23 38 c-30 51
-96 120 -141 149 -97 63 -264 73 -369 23 -56 -27 -107 -65 -98 -73 2 -3 37 9
78 26 144 61 246 48 345 -42 65 -61 99 -127 114 -229 13 -85 38 -123 69 -104
29 18 42 56 42 126 0 164 128 318 266 318 49 0 136 -41 165 -78 18 -23 20 -35
15 -92 -8 -85 5 -114 56 -118 55 -5 73 28 64 114 -8 80 9 110 86 148 94 47
174 30 259 -54 68 -68 102 -146 100 -232 -2 -57 17 -119 38 -132 21 -13 50 5
59 37 6 18 13 54 16 81 13 107 87 215 180 264 42 22 64 27 126 27 65 0 86 -5
158 -37 75 -33 82 -34 69 -15 -8 12 -44 37 -80 56 -54 28 -81 35 -145 39 -90
5 -181 -14 -239 -51 -44 -28 -110 -98 -138 -145 -11 -17 -22 -32 -25 -32 -3 0
-12 21 -19 46 -20 66 -79 149 -135 189 -56 39 -137 60 -199 50 -50 -9 -125
-45 -151 -74 l-19 -20 -38 33 c-70 60 -168 79 -260 50z"/>
<path d="M9955 14480 c-123 -7 -186 -29 -278 -98 -90 -68 -180 -212 -200 -319
-10 -51 7 -39 39 29 19 41 53 87 99 134 88 89 164 127 299 150 90 15 102 15
192 -1 130 -23 215 -68 298 -156 35 -36 76 -93 91 -125 34 -69 33 -69 41 -61
8 8 -23 113 -51 167 -36 71 -102 147 -169 194 -108 76 -184 94 -361 86z"/>
<path d="M3590 18373 c-74 -7 -165 -25 -177 -35 -19 -15 -16 -56 5 -66 23 -13
126 -20 362 -27 301 -9 432 -27 639 -86 148 -43 283 -97 470 -189 90 -44 166
-79 168 -76 15 14 -218 159 -384 237 -334 160 -815 267 -1083 242z"/>
<path d="M5285 18306 c-24 -37 -9 -55 96 -111 409 -220 792 -583 1038 -983 35
-56 65 -102 66 -102 6 0 -45 112 -87 190 -187 346 -478 664 -809 885 -123 82
-238 145 -266 145 -13 0 -29 -10 -38 -24z"/>
<path d="M6993 16684 c-3 -9 28 -86 75 -182 45 -92 93 -198 107 -237 32 -83
79 -278 95 -390 15 -106 21 -129 29 -116 10 16 3 156 -15 285 -31 233 -104
441 -211 602 -36 55 -68 70 -80 38z"/>
<path d="M7815 15611 c-4 -14 7 -37 40 -80 116 -152 223 -353 286 -533 34 -98
57 -130 44 -62 -35 190 -153 450 -280 621 -53 72 -79 87 -90 54z"/>
<path d="M8747 14323 c-13 -12 -7 -40 13 -58 27 -24 128 -175 171 -252 53 -98
68 -79 24 30 -28 69 -79 156 -138 235 -37 49 -55 61 -70 45z"/>
<path d="M16258 18375 c-2 -1 -39 -5 -83 -9 -378 -29 -877 -213 -1183 -436
-77 -55 -37 -45 105 28 228 116 425 189 635 236 147 32 260 44 498 51 318 9
364 15 381 46 17 33 -12 55 -89 69 -60 11 -256 22 -264 15z"/>
<path d="M14580 18282 c-304 -171 -573 -410 -786 -697 -86 -118 -194 -299
-247 -420 -31 -70 -18 -54 60 70 251 399 635 758 1033 965 104 54 121 78 82
113 -28 26 -50 21 -142 -31z"/>
<path d="M12933 16638 c-135 -208 -224 -526 -223 -803 1 -96 12 -99 24 -5 14
109 56 300 86 390 17 51 69 170 116 265 46 95 84 182 84 194 0 15 -6 21 -23
21 -17 0 -33 -16 -64 -62z"/>
<path d="M12115 15570 c-63 -86 -139 -215 -179 -302 -36 -79 -100 -269 -111
-330 -13 -67 9 -40 39 48 57 165 169 379 276 524 61 81 70 112 38 118 -11 2
-33 -18 -63 -58z"/>
<path d="M11176 14253 c-89 -125 -170 -303 -139 -303 5 0 22 24 38 53 40 75
126 205 168 255 37 44 40 72 6 72 -12 0 -38 -28 -73 -77z"/>
<path d="M4459 17626 c-18 -39 1 -55 122 -103 276 -107 452 -216 620 -383 192
-190 328 -391 512 -759 63 -124 116 -233 119 -241 3 -8 9 -12 13 -8 9 8 -127
337 -220 535 -159 334 -354 587 -593 769 -157 118 -389 214 -520 214 -35 0
-44 -4 -53 -24z"/>
<path d="M5788 17289 c-31 -18 -20 -57 40 -142 273 -387 473 -817 588 -1266
38 -150 94 -459 94 -521 0 -21 5 -42 11 -46 9 -5 10 18 5 87 -46 635 -263
1275 -609 1799 -67 102 -86 115 -129 89z"/>
<path d="M6856 15817 c-26 -19 -23 -52 12 -129 151 -332 297 -880 327 -1223 4
-44 12 -87 17 -95 6 -9 7 51 4 165 -9 353 -85 734 -210 1057 -62 160 -93 225
-112 232 -20 8 -17 8 -38 -7z"/>
<path d="M7865 14886 c-16 -12 -14 -21 28 -122 25 -60 72 -171 105 -246 99
-225 159 -423 216 -717 51 -260 64 -213 30 103 -39 362 -150 705 -298 929 -41
62 -56 71 -81 53z"/>
<path d="M8805 13720 c-10 -16 4 -49 56 -135 47 -77 103 -205 130 -292 13 -45
39 -59 39 -20 0 46 -51 231 -84 301 -49 106 -120 180 -141 146z"/>
<path d="M15412 17639 c-347 -58 -735 -406 -980 -879 -52 -100 -247 -545 -266
-607 -4 -13 -3 -23 2 -23 5 0 35 57 67 126 254 546 512 887 821 1086 69 44
262 138 379 183 89 35 112 48 119 69 20 52 -21 65 -142 45z"/>
<path d="M14154 17283 c-10 -10 -45 -61 -79 -113 -302 -467 -497 -1006 -569
-1570 -22 -172 -30 -290 -18 -290 5 0 12 35 16 77 18 200 94 537 171 763 119
346 272 650 482 958 46 68 86 129 89 137 7 18 -31 55 -55 55 -11 0 -27 -8 -37
-17z"/>
<path d="M13114 15822 c-40 -26 -173 -381 -229 -615 -54 -220 -84 -446 -92
-677 -7 -212 7 -216 31 -9 41 355 157 785 305 1134 28 66 51 123 51 127 0 10
-38 48 -47 48 -5 0 -13 -4 -19 -8z"/>
<path d="M12108 14888 c-52 -43 -171 -278 -227 -452 -72 -221 -116 -457 -128
-683 -7 -141 6 -165 26 -45 20 118 69 334 107 466 38 132 73 222 194 501 58
134 79 194 73 204 -13 21 -26 23 -45 9z"/>
<path d="M11142 13696 c-17 -19 -42 -55 -56 -78 -54 -93 -121 -347 -98 -370
12 -12 12 -14 67 138 20 55 63 145 96 200 33 54 58 108 57 119 -5 32 -33 28
-66 -9z"/>
<path d="M5202 16187 c-38 -46 -40 -330 -3 -470 22 -83 69 -197 81 -197 4 0
-1 39 -12 88 -28 128 -34 312 -14 451 12 85 13 117 5 127 -14 17 -43 18 -57 1z"/>
<path d="M4489 15348 c-20 -71 -15 -222 10 -318 33 -126 167 -388 188 -366 3
2 -15 56 -40 118 -62 154 -77 232 -80 423 -1 88 -6 166 -10 173 -5 6 -19 12
-32 12 -20 0 -26 -8 -36 -42z"/>
<path d="M5491 15192 c-5 -10 -19 -65 -31 -123 -97 -479 -37 -939 159 -1228
23 -33 47 -61 52 -61 6 0 9 6 6 13 -3 6 -24 54 -47 106 -90 206 -116 372 -106
681 3 113 8 223 11 245 12 93 22 235 21 305 -1 74 -1 75 -28 78 -18 2 -30 -3
-37 -16z"/>
<path d="M5073 14283 c-28 -11 -7 -179 42 -353 189 -669 876 -1337 1355 -1318
81 3 85 1 -70 38 -329 78 -760 463 -998 892 -74 133 -177 415 -233 633 -12 50
-27 96 -32 103 -9 12 -41 15 -64 5z"/>
<path d="M4152 14147 c-16 -18 -7 -123 16 -187 26 -74 86 -192 135 -265 46
-69 220 -245 242 -245 26 0 17 19 -44 90 -123 143 -188 260 -245 440 -35 112
-67 180 -85 180 -5 0 -13 -6 -19 -13z"/>
<path d="M5107 13353 c-14 -13 -6 -47 28 -125 182 -420 735 -830 1286 -952
289 -64 594 -61 866 8 125 31 197 58 192 71 -2 6 -7 9 -10 8 -4 -1 -51 -9
-105 -18 -483 -76 -943 -15 -1327 176 -272 136 -454 300 -785 712 -95 118
-124 142 -145 120z"/>
<path d="M8570 12924 c-131 -35 -231 -99 -465 -294 -92 -77 -201 -164 -243
-193 -329 -230 -732 -338 -1282 -346 -126 -2 -157 -5 -167 -17 -25 -34 -2 -49
122 -76 94 -20 447 -17 560 5 296 58 558 164 795 322 103 69 188 139 350 289
129 120 203 174 305 223 68 32 91 38 164 41 83 4 127 -5 214 -43 32 -14 17 12
-22 38 -94 62 -218 81 -331 51z"/>
<path d="M4097 12599 c-33 -19 -17 -47 78 -135 228 -211 428 -313 613 -314 55
0 62 2 62 19 0 16 -10 21 -47 27 -175 25 -367 132 -578 323 -95 86 -105 92
-128 80z"/>
<path d="M8544 12123 c-16 -21 -54 -63 -86 -94 -65 -64 -73 -89 -30 -89 35 0
100 62 143 135 49 84 28 120 -27 48z"/>
<path d="M5960 11665 c-101 -57 -300 -95 -491 -95 -129 0 -138 -1 -144 -20 -3
-11 -4 -24 0 -30 13 -20 94 -34 200 -33 88 1 128 6 199 27 98 29 265 110 273
133 9 24 -10 33 -37 18z"/>
<path d="M7276 11594 c-96 -77 -155 -109 -268 -144 -101 -31 -131 -50 -121
-75 22 -60 213 -2 358 108 86 65 155 167 113 167 -7 0 -44 -25 -82 -56z"/>
<path d="M14752 16187 c-6 -7 -9 -24 -7 -38 31 -178 33 -344 5 -494 -23 -126
-24 -143 -10 -129 16 16 61 146 81 234 30 137 22 383 -13 428 -14 16 -43 15
-56 -1z"/>
<path d="M15456 15381 c-4 -5 -8 -87 -10 -183 -5 -193 -19 -266 -81 -416 -45
-109 -49 -122 -39 -122 12 0 74 99 118 186 60 121 88 233 89 359 2 131 -12
185 -48 185 -13 0 -26 -4 -29 -9z"/>
<path d="M14453 15193 c-6 -16 5 -196 28 -433 15 -164 13 -421 -5 -538 -17
-115 -68 -277 -116 -372 -59 -117 -5 -78 67 48 80 142 134 312 158 500 15 119
13 368 -4 497 -15 111 -52 287 -64 303 -14 18 -57 15 -64 -5z"/>
<path d="M14876 14281 c-4 -6 -31 -96 -61 -200 -131 -463 -286 -734 -589
-1036 -216 -215 -423 -348 -616 -396 -151 -37 -153 -39 -35 -35 85 3 128 10
189 31 447 148 938 690 1115 1230 43 132 74 296 69 365 -3 42 -5 45 -35 48
-17 2 -34 -1 -37 -7z"/>
<path d="M15810 14128 c-11 -18 -41 -97 -66 -175 -56 -176 -137 -312 -262
-445 -31 -32 -36 -58 -12 -58 17 0 170 153 219 219 123 166 208 401 171 472
-15 27 -27 24 -50 -13z"/>
<path d="M14720 13184 c-337 -414 -546 -586 -885 -727 -125 -52 -324 -104
-465 -122 -30 -4 -64 -9 -75 -12 -11 -2 -94 -5 -185 -7 -160 -4 -333 8 -491
34 -141 23 -127 0 27 -45 301 -89 630 -98 943 -29 580 129 1133 552 1310 1002
21 52 14 82 -18 82 -11 0 -72 -66 -161 -176z"/>
<path d="M11215 12922 c-65 -22 -147 -71 -140 -82 3 -5 27 0 53 12 30 13 77
23 129 26 164 9 292 -59 543 -290 177 -163 246 -217 375 -299 193 -121 445
-222 692 -275 159 -35 431 -44 573 -20 153 26 186 43 157 79 -10 12 -55 16
-227 21 -118 3 -233 9 -255 12 -350 46 -512 89 -730 194 -140 67 -287 167
-445 302 -242 206 -369 288 -500 323 -73 20 -164 18 -225 -3z"/>
<path d="M15778 12512 c-230 -198 -399 -292 -570 -317 -38 -6 -48 -11 -48 -26
0 -17 8 -19 63 -19 184 1 388 105 614 315 95 88 110 115 74 135 -17 8 -36 -4
-133 -88z"/>
<path d="M11414 12156 c-18 -46 115 -216 169 -216 43 0 33 25 -42 103 -38 40
-81 86 -94 102 -24 28 -26 28 -33 11z"/>
<path d="M14013 11662 c-8 -20 14 -36 122 -88 137 -65 229 -88 360 -87 134 0
190 16 190 53 l0 25 -175 7 c-196 7 -285 23 -408 72 -71 29 -84 31 -89 18z"/>
<path d="M12640 11629 c0 -13 30 -51 78 -99 63 -63 95 -86 173 -124 103 -50
181 -67 217 -47 48 26 16 53 -107 91 -108 34 -176 71 -272 148 -69 57 -89 63
-89 31z"/>
<path d="M9390 11363 c-23 -9 -60 -45 -76 -75 -18 -34 -18 -79 0 -121 19 -46
102 -117 136 -117 26 0 53 21 61 48 2 7 35 -59 73 -147 78 -179 95 -207 120
-198 14 6 16 15 10 54 -16 110 -115 397 -170 490 -35 61 -97 87 -154 66z"/>
<path d="M10518 11355 c-37 -21 -59 -60 -122 -220 -53 -135 -86 -244 -101
-332 -6 -36 -4 -44 11 -50 26 -10 45 20 120 196 l68 160 18 -30 c26 -43 64
-39 122 12 55 49 76 85 76 134 0 101 -110 176 -192 130z"/>
<path d="M8935 11410 c3 -5 12 -7 20 -3 21 7 19 13 -6 13 -11 0 -18 -4 -14
-10z"/>
<path d="M11050 11410 c19 -13 30 -13 30 0 0 6 -10 10 -22 10 -19 0 -20 -2 -8
-10z"/>
<path d="M5770 10836 c-52 -23 -120 -51 -150 -61 -137 -44 -192 -95 -104 -95
66 0 290 102 359 164 38 34 39 35 15 35 -14 0 -68 -19 -120 -43z"/>
<path d="M7302 10776 c-73 -226 -224 -393 -440 -486 -66 -29 -88 -43 -90 -59
-5 -32 18 -35 141 -17 199 28 387 100 551 210 38 25 71 46 74 46 2 0 2 -17 -2
-37 -3 -21 -9 -105 -12 -188 -14 -352 70 -723 238 -1055 91 -178 219 -370 247
-370 26 0 38 18 46 70 41 296 91 490 187 739 l41 104 32 -96 c18 -56 68 -162
122 -259 143 -256 179 -337 223 -498 49 -180 68 -407 50 -580 -9 -86 -4 -110
26 -110 15 0 37 32 111 165 28 50 102 180 164 290 l113 200 9 -50 c19 -120 61
-297 93 -394 119 -363 335 -700 592 -922 47 -41 104 -91 126 -111 49 -47 77
-48 119 -5 18 17 72 66 121 107 344 292 611 793 687 1289 11 70 15 80 25 66 7
-9 90 -153 184 -320 94 -167 179 -306 187 -309 30 -12 45 14 38 65 -12 89 -7
352 9 449 30 182 108 404 197 555 90 153 155 284 185 374 l32 94 50 -129 c81
-210 142 -447 172 -674 18 -135 44 -144 117 -42 81 111 138 210 206 352 155
324 220 628 212 990 -2 96 -7 190 -10 208 -3 17 -4 32 -2 32 2 0 35 -21 73
-47 94 -63 251 -137 359 -168 96 -28 237 -52 295 -51 30 1 35 4 35 25 0 20
-13 29 -87 61 -224 96 -389 287 -453 524 -23 83 -40 87 -32 8 8 -74 53 -203
98 -278 34 -58 147 -181 204 -223 l30 -22 -35 7 c-58 10 -220 77 -296 122 -40
23 -109 71 -154 107 -46 36 -86 65 -90 65 -4 0 -13 -7 -20 -15 -11 -13 -8
-113 7 -180 2 -11 4 -103 4 -205 0 -235 -27 -431 -87 -625 -58 -186 -150 -388
-246 -537 -61 -95 -50 -108 -92 110 -43 217 -130 477 -222 668 -55 112 -87
112 -97 0 -13 -138 -69 -283 -190 -488 -170 -289 -233 -495 -246 -792 l-6
-150 -170 302 c-93 166 -176 304 -184 307 -24 9 -42 -19 -47 -76 -10 -108 -56
-325 -93 -438 -84 -255 -198 -462 -379 -691 -82 -103 -326 -350 -347 -350 -18
0 -260 242 -338 340 -108 134 -214 300 -282 443 -102 213 -152 375 -181 586
-8 64 -18 130 -20 148 -5 31 -23 47 -46 37 -7 -2 -54 -78 -104 -167 -50 -89
-127 -225 -170 -302 l-79 -140 -7 155 c-13 310 -70 487 -266 828 -111 193
-172 361 -172 475 0 35 -15 57 -38 57 -16 0 -104 -184 -161 -337 -48 -133
-103 -336 -131 -487 -11 -60 -22 -111 -24 -113 -7 -7 -96 141 -155 257 -190
374 -267 808 -220 1246 10 99 10 117 -2 125 -21 13 -23 13 -86 -39 -88 -73
-177 -130 -268 -173 -87 -40 -223 -85 -231 -76 -3 2 11 14 30 26 60 38 168
163 214 248 57 108 105 304 75 303 -5 0 -23 -47 -41 -104z"/>
<path d="M14112 10868 c13 -42 284 -178 371 -186 42 -4 47 -2 47 16 0 21 -45
47 -125 72 -22 7 -90 34 -151 61 -114 50 -149 59 -142 37z"/>
<path d="M7401 10691 c-11 -27 -21 -53 -21 -57 0 -4 -19 -36 -41 -71 -23 -35
-38 -67 -34 -71 10 -10 88 80 114 133 12 25 25 60 28 80 9 54 -20 45 -46 -14z"/>
<path d="M12565 10704 c10 -53 46 -121 93 -174 51 -57 64 -46 23 19 -18 28
-45 81 -61 118 -17 40 -36 69 -46 71 -14 3 -16 -2 -9 -34z"/>
<path d="M5957 10532 c-28 -30 -104 -193 -131 -280 -14 -46 -31 -115 -37 -155
-14 -88 -7 -323 9 -339 9 -9 12 4 12 56 0 102 28 270 60 368 35 104 67 169
127 260 37 57 42 71 33 88 -13 25 -51 26 -73 2z"/>
<path d="M13981 10528 c-7 -18 0 -35 29 -78 117 -173 190 -414 190 -629 0 -60
3 -72 13 -62 9 9 12 60 12 184 0 157 -2 181 -28 270 -28 102 -99 261 -137 310
-27 34 -67 37 -79 5z"/>
<path d="M7696 10462 c-3 -5 -10 -59 -17 -121 -9 -86 -9 -137 0 -214 19 -167
62 -347 83 -347 11 0 11 2 -18 130 -18 77 -25 332 -14 485 4 59 3 70 -12 73
-9 2 -19 -1 -22 -6z"/>
<path d="M12276 10461 c-4 -5 -1 -54 5 -108 16 -131 6 -362 -21 -477 -23 -105
-22 -96 -10 -96 13 0 46 110 67 223 19 100 22 377 6 432 -9 30 -36 45 -47 26z"/>
<path d="M6503 9793 c-13 -43 -17 -93 -17 -193 0 -157 16 -247 75 -425 37
-112 118 -309 124 -303 2 2 -12 48 -30 103 -68 203 -94 387 -90 630 4 207 0
245 -26 245 -14 0 -23 -14 -36 -57z"/>
<path d="M13449 9813 c-1 -21 -2 -132 -3 -248 -3 -262 -34 -447 -105 -635 -30
-78 -26 -85 7 -15 125 264 191 537 178 735 -8 133 -25 194 -53 198 -20 3 -23
-1 -24 -35z"/>
<path d="M8395 9750 c-5 -16 9 -37 61 -93 138 -148 237 -284 316 -432 26 -49
48 -87 48 -84 0 16 -87 224 -120 286 -74 138 -239 343 -276 343 -14 0 -25 -8
-29 -20z"/>
<path d="M11505 9699 c-82 -97 -172 -223 -205 -289 -28 -57 -100 -234 -100
-247 0 -5 17 24 39 62 79 146 164 263 299 413 64 71 82 97 77 112 -12 39 -47
23 -110 -51z"/>
<path d="M9345 8703 c-21 -20 -16 -49 36 -208 76 -232 187 -426 348 -610 100
-114 135 -127 56 -20 -164 221 -284 476 -345 735 -13 52 -27 101 -33 108 -13
17 -42 15 -62 -5z"/>
<path d="M10604 8708 c-5 -7 -22 -69 -40 -138 -65 -255 -183 -499 -343 -712
-57 -77 -54 -98 6 -35 206 216 351 470 429 755 13 48 24 92 24 99 0 33 -60 57
-76 31z"/>
<path d="M7466 8685 c-3 -8 6 -45 20 -81 85 -226 126 -456 126 -707 0 -99 4
-175 8 -170 4 4 16 44 27 88 28 124 26 404 -5 544 -26 114 -61 219 -98 294
-19 36 -30 47 -48 47 -13 0 -26 -7 -30 -15z"/>
<path d="M12460 8635 c-82 -183 -114 -341 -114 -560 0 -165 20 -324 44 -349 5
-5 9 63 9 155 -1 252 27 425 107 667 25 73 42 137 39 142 -3 6 -17 10 -31 10
-21 0 -29 -10 -54 -65z"/>
<path d="M8444 7729 c-18 -30 38 -387 90 -567 20 -67 54 -167 76 -221 43 -104
99 -215 106 -208 3 2 -11 44 -29 93 -61 159 -123 395 -146 559 -15 102 -30
277 -24 291 2 6 -1 23 -6 37 -8 19 -18 27 -35 27 -14 0 -28 -5 -32 -11z"/>
<path d="M11505 7730 c-4 -6 -8 -50 -10 -98 -10 -269 -85 -599 -200 -884 -4
-10 -3 -18 2 -18 14 0 95 177 137 299 73 211 123 451 128 621 l3 85 -27 3
c-14 2 -29 -2 -33 -8z"/>
<path d="M9520 6710 c0 -42 232 -450 256 -450 14 0 4 26 -95 236 -80 168 -120
234 -143 234 -11 0 -18 -7 -18 -20z"/>
<path d="M10418 6668 c-62 -109 -188 -380 -188 -406 0 -26 19 0 103 140 95
159 169 306 161 319 -15 24 -42 5 -76 -53z"/>
<path d="M4246 11257 c-31 -46 -115 -236 -151 -337 -183 -524 -175 -1110 26
-1805 81 -279 235 -669 377 -955 60 -121 81 -140 116 -105 27 28 19 65 -55
235 -256 594 -418 1085 -478 1450 -11 69 -23 141 -27 160 -3 19 -8 154 -10
300 -3 285 7 401 56 595 29 115 94 303 132 378 40 80 50 107 38 107 -5 0 -16
-10 -24 -23z"/>
<path d="M15766 11203 c148 -321 207 -601 207 -968 -2 -529 -136 -1041 -496
-1885 -55 -129 -100 -243 -99 -254 1 -27 33 -57 56 -54 25 4 41 32 137 238
252 544 393 1009 460 1520 19 139 16 519 -4 655 -42 286 -117 526 -230 739
-55 104 -77 110 -31 9z"/>
<path d="M4466 10023 c-9 -42 1 -416 14 -513 25 -193 82 -408 144 -542 30 -65
42 -76 62 -57 11 12 8 33 -22 139 -117 417 -173 718 -174 933 0 68 -13 89 -24
40z"/>
<path d="M15517 9918 c-10 -220 -77 -556 -181 -907 -25 -85 -25 -111 0 -111
48 0 150 309 189 570 18 124 32 484 21 544 -13 69 -23 36 -29 -96z"/>
<path d="M5461 8528 c5 -293 70 -632 171 -885 31 -79 45 -103 59 -103 25 0 24
12 -11 109 -101 276 -177 619 -196 884 -10 137 -25 134 -23 -5z"/>
<path d="M14537 8633 c-4 -3 -7 -27 -7 -52 0 -59 -25 -262 -46 -372 -25 -137
-71 -308 -129 -488 -30 -92 -55 -171 -55 -175 0 -3 9 -6 19 -6 15 0 28 22 60
104 104 267 165 582 170 879 2 115 1 124 -12 110z"/>
<path d="M6350 8035 c-9 -45 -3 -205 15 -425 55 -662 350 -1609 671 -2157 73
-126 183 -287 228 -336 30 -33 38 -37 56 -27 49 26 47 32 -158 370 -145 241
-252 448 -355 690 -225 529 -343 987 -426 1660 -16 129 -30 231 -31 225z"/>
<path d="M13646 7963 c-39 -453 -143 -972 -272 -1364 -135 -413 -292 -752
-528 -1143 -69 -115 -140 -238 -158 -273 l-33 -64 24 -20 c33 -27 49 -15 133
102 309 426 592 1127 747 1849 25 114 67 370 76 460 4 36 8 76 10 90 6 41 15
177 21 313 6 140 -9 178 -20 50z"/>
<path d="M7980 6386 c0 -3 20 -74 44 -158 177 -608 253 -1173 253 -1870 0
-217 3 -291 13 -303 17 -21 53 -19 75 5 17 18 17 41 12 342 -3 178 -8 334 -10
348 -3 14 -8 61 -12 105 -18 228 -81 583 -157 880 -44 175 -194 641 -209 650
-5 4 -9 4 -9 1z"/>
<path d="M12009 6364 c-6 -16 -37 -108 -70 -204 -132 -394 -221 -788 -269
-1180 -29 -247 -37 -370 -39 -649 -2 -206 0 -247 14 -267 9 -14 25 -24 38 -24
51 1 51 -2 50 297 0 406 21 716 73 1068 38 261 114 603 190 858 20 66 33 121
30 124 -3 3 -11 -7 -17 -23z"/>
<path d="M9160 4608 c0 -10 9 -63 20 -120 19 -104 35 -214 45 -323 3 -33 8
-80 10 -105 5 -47 11 -185 20 -450 8 -239 16 -383 22 -403 3 -12 12 -17 26
-15 19 3 24 14 35 73 15 82 20 387 9 495 -25 228 -55 394 -123 665 -41 163
-64 229 -64 183z"/>
<path d="M10836 4612 c-8 -13 -83 -317 -110 -447 -60 -290 -82 -562 -64 -784
12 -150 20 -185 42 -189 10 -2 22 0 26 5 8 8 16 135 25 398 13 404 35 671 70
861 14 72 27 139 31 148 6 16 -10 23 -20 8z"/>
<path d="M9639 2898 c-15 -257 7 -394 92 -559 47 -90 128 -183 152 -173 10 3
17 12 17 18 0 7 -28 62 -63 122 -111 196 -167 373 -167 537 0 62 -3 77 -15 77
-9 0 -16 -10 -16 -22z"/>
<path d="M10340 2846 c0 -179 -64 -375 -191 -584 -43 -71 -47 -87 -22 -96 54
-21 187 200 228 379 32 135 31 375 -1 375 -11 0 -14 -17 -14 -74z"/>
</g>
</svg>
